<svg width="11" height="11" viewBox="0 0 11 11" fill="none" xmlns="http://www.w3.org/2000/svg">
<path d="M2.85709 3.35229C2.54977 3.35229 2.30063 3.60122 2.30063 3.9083C2.30063 4.21537 2.54977 4.46431 2.85709 4.46431H7.30876C7.61608 4.46431 7.86522 4.21537 7.86522 3.9083C7.86522 3.60122 7.61608 3.35229 7.30876 3.35229H2.85709Z" fill="#201F2B" fill-opacity="0.75"/>
<path fill-rule="evenodd" clip-rule="evenodd" d="M1.74417 0.0162506C0.822204 0.0162506 0.0747986 0.763049 0.0747986 1.68427V8.35635C0.0747986 9.27758 0.822204 10.0244 1.74417 10.0244H8.42168C9.34365 10.0244 10.0911 9.27758 10.0911 8.35635V1.68427C10.0911 0.763049 9.34365 0.0162506 8.42168 0.0162506H1.74417ZM1.18772 8.35635V2.24028H8.97814V8.35635C8.97814 8.66343 8.729 8.91236 8.42168 8.91236H1.74417C1.43685 8.91236 1.18772 8.66343 1.18772 8.35635Z" fill="#201F2B" fill-opacity="0.75"/>
</svg>
