<svg width="15" height="15" viewBox="0 0 15 15" fill="none" xmlns="http://www.w3.org/2000/svg">
<path d="M1.70711 0.292893C1.31658 -0.0976311 0.683418 -0.0976311 0.292893 0.292893C-0.0976311 0.683418 -0.0976311 1.31658 0.292893 1.70711L6.06763 7.48184L0.292953 13.2565C-0.097571 13.647 -0.0975714 14.2802 0.292953 14.6707C0.683477 15.0613 1.31664 15.0613 1.70717 14.6707L7.48184 8.89606L13.2565 14.6707C13.647 15.0613 14.2802 15.0613 14.6707 14.6707C15.0613 14.2802 15.0613 13.647 14.6707 13.2565L8.89606 7.48184L14.6708 1.70711C15.0613 1.31658 15.0613 0.683418 14.6708 0.292893C14.2803 -0.0976311 13.6471 -0.0976311 13.2566 0.292893L7.48184 6.06763L1.70711 0.292893Z" fill="black"/>
</svg>
