<svg width="18" height="19" viewBox="0 0 18 19" fill="none" xmlns="http://www.w3.org/2000/svg">
<path d="M9.48833 8.84701V0.572965C9.48833 0.291662 9.26328 0.0666199 8.98198 0.0666199C8.70068 0.0666199 8.47564 0.291662 8.47564 0.572965V8.84701C7.30167 9.08331 6.41275 10.1223 6.41275 11.3675C6.41275 12.6127 7.30167 13.6517 8.47564 13.888V17.5711C8.47564 17.8524 8.70068 18.0775 8.98198 18.0775C9.26328 18.0775 9.48833 17.8524 9.48833 17.5711V13.888C10.6623 13.6517 11.5512 12.6127 11.5512 11.3675C11.5512 10.126 10.666 9.08331 9.48833 8.84701ZM8.98198 12.924C8.12307 12.924 7.42544 12.2264 7.42544 11.3675C7.42544 10.5086 8.12307 9.81094 8.98198 9.81094C9.84089 9.81094 10.5385 10.5086 10.5385 11.3675C10.5385 12.2264 9.84089 12.924 8.98198 12.924Z" fill="#201F2B"/>
<path d="M3.28841 4.60122V0.572965C3.28841 0.291662 3.06336 0.0666199 2.78206 0.0666199C2.50076 0.0666199 2.27572 0.291662 2.27572 0.572965V4.60122C1.10175 4.83751 0.21283 5.87646 0.21283 7.12169C0.21283 8.36692 1.10175 9.40587 2.27572 9.64216V17.5711C2.27572 17.8524 2.50076 18.0775 2.78206 18.0775C3.06336 18.0775 3.28841 17.8524 3.28841 17.5711V9.63841C4.46237 9.40212 5.35129 8.36317 5.35129 7.11794C5.35129 5.87271 4.46237 4.83751 3.28841 4.60122ZM2.78206 8.67823C1.92315 8.67823 1.22552 7.9806 1.22552 7.12169C1.22552 6.26278 1.92315 5.56515 2.78206 5.56515C3.64097 5.56515 4.3386 6.26278 4.3386 7.12169C4.3386 7.9806 3.63722 8.67823 2.78206 8.67823Z" fill="#201F2B"/>
<path d="M15.6507 4.60122V0.572965C15.6507 0.291662 15.4257 0.0666199 15.1444 0.0666199C14.8631 0.0666199 14.6381 0.291662 14.6381 0.572965V4.60122C13.4641 4.83751 12.5752 5.87646 12.5752 7.12169C12.5752 8.36692 13.4641 9.40587 14.6381 9.64216V17.5749C14.6381 17.8562 14.8631 18.0812 15.1444 18.0812C15.4257 18.0812 15.6507 17.8562 15.6507 17.5749V9.63841C16.8247 9.40212 17.7136 8.36317 17.7136 7.11794C17.7136 5.87271 16.8285 4.83751 15.6507 4.60122ZM15.1444 8.67823C14.2855 8.67823 13.5879 7.9806 13.5879 7.12169C13.5879 6.26278 14.2855 5.56515 15.1444 5.56515C16.0033 5.56515 16.7009 6.26278 16.7009 7.12169C16.7009 7.9806 16.0033 8.67823 15.1444 8.67823Z" fill="#201F2B"/>
</svg>
