<svg width="14" height="18" viewBox="0 0 14 18" fill="none" xmlns="http://www.w3.org/2000/svg">
<path fill-rule="evenodd" clip-rule="evenodd" d="M14 6.11167L8.57174 0.683418C7.66052 -0.227806 6.18314 -0.227806 5.27191 0.683418L0 5.95533V17.2445H5.44444V12.5778C5.44444 11.7187 6.14089 11.0223 7 11.0223C7.85911 11.0223 8.55556 11.7187 8.55556 12.5778V17.2445H14V6.11167ZM6.37186 1.78336L1.55556 6.59966V15.689H3.88889V12.5778C3.88889 10.8596 5.28178 9.46673 7 9.46673C8.71822 9.46673 10.1111 10.8596 10.1111 12.5778V15.689H12.4444V6.756L7.4718 1.78336C7.16806 1.47962 6.6756 1.47962 6.37186 1.78336Z" fill="#201F2B"/>
</svg>
