<svg width="14" height="14" viewBox="0 0 14 14" fill="none" xmlns="http://www.w3.org/2000/svg">
<path d="M9.40201 7.00002L10.603 8.20103L13.005 5.79901C14.3316 4.4724 14.3316 2.32155 13.005 0.994952C11.6784 -0.331651 9.5276 -0.331651 8.20099 0.994952L5.79897 3.39698L6.99998 4.59799L9.40201 2.19597C10.0653 1.53266 11.1407 1.53266 11.804 2.19597C12.4673 2.85927 12.4673 3.93469 11.804 4.59799L9.40201 7.00002Z" fill="#201F2B" fill-opacity="0.75"/>
<path d="M7.00002 9.40211L8.20103 10.6031L5.79901 13.0052C4.4724 14.3318 2.32155 14.3318 0.994952 13.0052C-0.331651 11.6785 -0.331651 9.5277 0.994952 8.2011L3.39698 5.79907L4.59799 7.00008L2.19597 9.40211C1.53266 10.0654 1.53266 11.1408 2.19597 11.8041C2.85927 12.4674 3.93469 12.4674 4.59799 11.8041L7.00002 9.40211Z" fill="#201F2B" fill-opacity="0.75"/>
<path d="M9.40204 5.79895C9.7337 5.4673 9.7337 4.92958 9.40204 4.59793C9.07039 4.26628 8.53268 4.26628 8.20103 4.59793L4.59799 8.20097C4.26634 8.53262 4.26634 9.07034 4.59799 9.40199C4.92964 9.73364 5.46735 9.73364 5.799 9.40199L9.40204 5.79895Z" fill="#201F2B" fill-opacity="0.75"/>
</svg>
