<svg width="29" height="20" viewBox="0 0 29 20" fill="none" xmlns="http://www.w3.org/2000/svg">
<path d="M28.5714 18.5783C28.5714 19.3635 27.9349 20 27.1497 20H15.7074C14.9222 20 14.2857 19.3635 14.2857 18.5783C14.2857 17.7931 14.9222 17.1566 15.7074 17.1566H27.1497C27.9349 17.1566 28.5714 17.7931 28.5714 18.5783Z" fill="#201F2B"/>
<path d="M28.5714 10.0003C28.5714 10.7855 27.9349 11.4221 27.1497 11.4221H1.42171C0.63652 11.4221 0 10.7855 0 10.0003C0 9.21516 0.636518 8.57864 1.42171 8.57864H27.1497C27.9349 8.57864 28.5714 9.21516 28.5714 10.0003Z" fill="#201F2B"/>
<path d="M27.1497 2.84341C27.9349 2.84341 28.5714 2.20689 28.5714 1.4217C28.5714 0.636518 27.9349 0 27.1497 0H9.99313C9.20795 0 8.57143 0.636518 8.57143 1.4217C8.57143 2.20689 9.20795 2.84341 9.99313 2.84341H27.1497Z" fill="#201F2B"/>
</svg>
