<svg width="21" height="21" viewBox="0 0 21 21" fill="none" xmlns="http://www.w3.org/2000/svg">
<path fill-rule="evenodd" clip-rule="evenodd" d="M19.2635 0.292893C18.873 -0.097631 18.2398 -0.0976311 17.8493 0.292893L16.9769 1.16525C15.8618 0.632544 14.4857 0.82801 13.5621 1.75165L2.95549 12.3582L8.61234 18.0151L19.2189 7.4085C20.1426 6.48486 20.338 5.1088 19.8053 3.99367L20.6777 3.12132C21.0682 2.7308 21.0682 2.09763 20.6777 1.70711L19.2635 0.292893ZM14.9955 8.80353L8.61234 15.1867L5.78392 12.3582L12.1671 5.9751L14.9955 8.80353ZM16.8138 6.98525L17.8047 5.99429C18.1953 5.60376 18.1953 4.9706 17.8047 4.58007L16.3905 3.16586C16 2.77534 15.3668 2.77534 14.9763 3.16586L13.9853 4.15683L16.8138 6.98525Z" fill="black"/>
<path d="M0 20.9502L2.12171 13.1717L7.77817 18.8289L0 20.9502Z" fill="black"/>
</svg>
