<svg width="18" height="18" viewBox="0 0 18 18" fill="none" xmlns="http://www.w3.org/2000/svg">
<path fill-rule="evenodd" clip-rule="evenodd" d="M13.6375 12.2932C15.965 9.30405 15.7547 4.97949 13.0069 2.23163C10.0314 -0.743876 5.20713 -0.743876 2.23163 2.23163C-0.743876 5.20713 -0.743876 10.0314 2.23163 13.0069C4.97949 15.7547 9.30405 15.965 12.2932 13.6375C12.3061 13.6521 12.3195 13.6664 12.3334 13.6803L16.3741 17.721C16.7461 18.093 17.3491 18.093 17.721 17.721C18.093 17.3491 18.093 16.7461 17.721 16.3741L13.6803 12.3334C13.6664 12.3195 13.6521 12.3061 13.6375 12.2932ZM11.66 3.57853C13.8916 5.81016 13.8916 9.42834 11.66 11.66C9.42834 13.8916 5.81016 13.8916 3.57853 11.66C1.34691 9.42834 1.34691 5.81016 3.57853 3.57853C5.81016 1.34691 9.42834 1.34691 11.66 3.57853Z" fill="#201F2B"/>
</svg>
