<svg width="20" height="20" viewBox="0 0 20 20" xmlns="http://www.w3.org/2000/svg">
<path d="M16.6213 0.550232L19.4498 3.37866L18.0355 4.79287L15.2071 1.96445L16.6213 0.550232Z"/>
<path d="M10.8225 6.60048H8.82246V10.6005H10.8225V6.60048Z"/>
<path fill-rule="evenodd" clip-rule="evenodd" d="M3.1863 16.8137C6.70102 20.3284 12.3995 20.3284 15.9142 16.8137C19.4289 13.299 19.4289 7.60048 15.9142 4.08577C12.3995 0.571047 6.70102 0.571047 3.1863 4.08577C-0.328417 7.60048 -0.328418 13.299 3.1863 16.8137ZM4.60051 15.3995C7.33418 18.1331 11.7663 18.1331 14.5 15.3995C17.2337 12.6658 17.2337 8.23365 14.5 5.49998C11.7663 2.76631 7.33418 2.76631 4.60051 5.49998C1.86684 8.23365 1.86684 12.6658 4.60051 15.3995Z"/>
</svg>
